# xmcd
#
# Track frame offsets:
#  150
#  17083
#  32422
#  47357
#  64784
#  80451
#  96590
#  108333
#  125269
#  143297
#  160570
#
# Disc length: 2417 seconds
#
# Revision: 0
# Processed by: cddbd v1.5.1PL2 Copyright (c) Steve Scherf et al.
# Submitted via: Collectorz.com_Music_Collector 6.11
#
DISCID=7a096f0b
DTITLE=Kenny Rogers - After Dark
DYEAR=2006
DGENRE=General Country - General Pop
TTITLE0=Ain't No Sunshine
TTITLE1=You Don't Know Me
TTITLE2=How Sweet It Is (to Be Loved by You)
TTITLE3=Three Times a Lady
TTITLE4=Share Your Love with Me
TTITLE5=I Don't Need You
TTITLE6=This Masquerade
TTITLE7=Since I Fell for You
TTITLE8=Don't Fall in Love with a Dreamer
TTITLE9=You Looked so Beautiful
TTITLE10=Small Dark Cloud
EXTD=
EXTT0=
EXTT1=
EXTT2=
EXTT3=
EXTT4=
EXTT5=
EXTT6=
EXTT7=
EXTT8=
EXTT9=
EXTT10=
PLAYORDER=
